<svg xmlns="http://www.w3.org/2000/svg" fill="none" viewBox="0 0 36 36">
  <rect width="36" height="36" fill="#fff" rx="18"/>
  <path fill="#1146A6" d="M12.938 16.875a3.794 3.794 0 0 1-2.785-1.153A3.794 3.794 0 0 1 9 12.938c0-1.088.384-2.016 1.153-2.785A3.794 3.794 0 0 1 12.937 9c1.088 0 2.016.384 2.785 1.153a3.794 3.794 0 0 1 1.153 2.784 3.794 3.794 0 0 1-1.153 2.785 3.794 3.794 0 0 1-2.784 1.153Zm0-2.25c.468 0 .867-.164 1.194-.493.329-.327.493-.726.493-1.194 0-.47-.164-.868-.493-1.195a1.625 1.625 0 0 0-1.194-.493c-.47 0-.868.164-1.195.493a1.625 1.625 0 0 0-.493 1.194c0 .47.164.868.493 1.195.327.329.726.493 1.194.493ZM23.062 27a3.794 3.794 0 0 1-2.784-1.153 3.794 3.794 0 0 1-1.153-2.785c0-1.087.384-2.015 1.153-2.784a3.794 3.794 0 0 1 2.785-1.153c1.087 0 2.015.384 2.784 1.153A3.794 3.794 0 0 1 27 23.063a3.794 3.794 0 0 1-1.153 2.784A3.794 3.794 0 0 1 23.062 27Zm0-2.25c.47 0 .867-.164 1.195-.493.329-.328.493-.726.493-1.195 0-.468-.164-.867-.493-1.194a1.625 1.625 0 0 0-1.195-.493c-.468 0-.867.164-1.194.493a1.625 1.625 0 0 0-.493 1.195c0 .468.164.867.493 1.194.328.329.726.493 1.195.493ZM9.787 26.212a1.067 1.067 0 0 1-.309-.787c0-.319.103-.581.31-.788l14.85-14.85c.206-.206.468-.309.787-.309s.581.103.787.31c.207.206.31.468.31.787s-.103.581-.31.788l-14.85 14.85c-.206.206-.468.309-.787.309s-.581-.103-.787-.31Z"/>
</svg>
