<svg xmlns="http://www.w3.org/2000/svg" fill="none" viewBox="0 0 11 13">
  <path fill="#8C8E9B" fill-rule="evenodd" d="M8.929 5.357a1.786 1.786 0 0 1 1.785 1.786v3.571A1.786 1.786 0 0 1 8.93 12.5H1.786A1.786 1.786 0 0 1 0 10.714V7.143a1.786 1.786 0 0 1 1.786-1.786V3.571a3.571 3.571 0 0 1 7.143 0v1.786ZM5.357 1.19a2.381 2.381 0 0 1 2.381 2.381v1.786H2.976V3.571a2.38 2.38 0 0 1 2.381-2.38ZM8.93 6.548H1.786a.595.595 0 0 0-.596.595v3.571a.595.595 0 0 0 .596.595h7.143a.595.595 0 0 0 .595-.595V7.143a.595.595 0 0 0-.595-.595Z" clip-rule="evenodd"/>
</svg>
