<svg xmlns="http://www.w3.org/2000/svg" fill="none" viewBox="0 0 164 50">
  <path fill="#1146A6" d="M0 3a3 3 0 0 1 3-3h102v38H3a3 3 0 0 1-3-3V3Z"/>
  <path fill="#FCC01A" d="M105 0 79 13h26V0Z"/>
  <path fill="#286ACC" d="M78 15a3 3 0 0 1 3-3h83v38H81a3 3 0 0 1-3-3V15Z"/>
  <path fill="#fff" d="M11.61 28V11.44h6.509c1.05 0 1.932.215 2.645.644.713.43 1.25.985 1.61 1.668.36.674.54 1.387.54 2.138 0 .913-.226 1.695-.678 2.346a3.33 3.33 0 0 1-1.806 1.334l-.023-.563c1.058.26 1.871.77 2.439 1.53.567.75.85 1.629.85 2.633 0 .974-.195 1.82-.586 2.541a4.082 4.082 0 0 1-1.69 1.691c-.737.399-1.63.598-2.68.598h-7.13Zm2.438-2.288h4.324a3.32 3.32 0 0 0 1.46-.311 2.408 2.408 0 0 0 1.024-.886c.253-.39.38-.854.38-1.391 0-.498-.112-.947-.334-1.345a2.308 2.308 0 0 0-.943-.955c-.406-.238-.886-.357-1.438-.357h-4.473v5.245Zm0-7.51h4.036c.445 0 .844-.088 1.197-.265a2.09 2.09 0 0 0 .85-.782c.215-.345.322-.759.322-1.242 0-.643-.214-1.172-.643-1.587-.43-.414-1.005-.62-1.726-.62h-4.036v4.496ZM39.014 28h-2.438V15.684L28.424 28h-2.438V11.44h2.438v12.305l8.154-12.305h2.438V28Zm8.88.345c-1.15 0-2.15-.169-3.002-.506-.85-.337-1.564-.774-2.139-1.311-.567-.544-1-1.123-1.3-1.736l2.094-1.358c.184.453.46.878.828 1.277.375.399.858.725 1.449.978.598.245 1.322.367 2.173.367s1.553-.126 2.105-.379c.552-.26.962-.606 1.23-1.035a2.7 2.7 0 0 0 .414-1.472c0-.636-.168-1.127-.506-1.472-.33-.353-.77-.598-1.322-.736a8.162 8.162 0 0 0-1.794-.253c-.537-.015-.924-.027-1.162-.035a9.204 9.204 0 0 0-.483-.023h-.218v-2.276h1.104c.23-.008.418-.016.563-.023.95-.047 1.718-.28 2.3-.702.59-.422.886-1.02.886-1.794s-.288-1.384-.863-1.829c-.567-.444-1.315-.666-2.242-.666-.882 0-1.64.203-2.277.609-.637.399-1.127.893-1.472 1.483l-1.771-1.667c.552-.767 1.307-1.407 2.265-1.92.959-.514 2.066-.771 3.324-.771.713 0 1.403.096 2.07.287a5.538 5.538 0 0 1 1.794.851c.529.384.947.87 1.253 1.461.315.583.472 1.276.472 2.081 0 .806-.165 1.534-.495 2.185-.322.652-.755 1.17-1.3 1.553.76.284 1.354.732 1.783 1.345.43.606.644 1.38.644 2.323 0 1.058-.28 1.975-.84 2.749-.551.767-1.31 1.36-2.276 1.782-.959.422-2.055.633-3.29.633ZM55.606 28l5.383-16.56h3.461L69.832 28h-2.495L62.38 12.889h.621L58.102 28h-2.495Zm2.795-3.738V22.01h8.648v2.253h-8.648ZM93.28 41.345c-1.15 0-2.151-.169-3.002-.506-.851-.337-1.564-.774-2.139-1.311-.567-.544-1-1.123-1.3-1.736l2.094-1.358c.183.453.46.878.827 1.277.376.399.86.724 1.45.977.598.246 1.322.368 2.173.368s1.553-.126 2.105-.379c.552-.26.962-.606 1.23-1.035a2.7 2.7 0 0 0 .414-1.472c0-.636-.169-1.127-.506-1.472-.33-.353-.77-.598-1.323-.736a8.162 8.162 0 0 0-1.793-.253c-.537-.015-.924-.027-1.162-.035a9.204 9.204 0 0 0-.483-.023h-.218v-2.277h1.104c.23-.007.417-.015.563-.022.95-.047 1.717-.28 2.3-.702.59-.422.885-1.02.885-1.794s-.287-1.384-.862-1.829c-.567-.444-1.315-.667-2.243-.667-.881 0-1.64.204-2.276.61-.637.399-1.127.893-1.472 1.483l-1.772-1.667c.553-.767 1.308-1.407 2.266-1.92.958-.514 2.066-.771 3.323-.771.714 0 1.404.096 2.07.288a5.538 5.538 0 0 1 1.794.85c.53.384.947.87 1.254 1.461.314.583.471 1.277.471 2.082 0 .805-.164 1.533-.494 2.184-.322.652-.755 1.17-1.3 1.553.76.284 1.354.732 1.783 1.346.43.605.644 1.38.644 2.322 0 1.059-.28 1.975-.84 2.749-.552.767-1.31 1.36-2.276 1.782-.959.422-2.055.633-3.29.633Zm7.712-.345 5.382-16.56h3.462L115.218 41h-2.496l-4.956-15.111h.621L103.488 41h-2.496Zm2.795-3.737v-2.255h8.648v2.255h-8.648ZM117.281 41V24.44h2.438v12.305l8.153-12.305h2.438V41h-2.438V28.683L119.719 41h-2.438Zm6.555-17.986c-.613 0-1.169-.15-1.668-.448a3.439 3.439 0 0 1-1.196-1.197 3.178 3.178 0 0 1-.448-1.667h1.909c0 .383.138.713.414.989.276.276.606.414.989.414.391 0 .721-.138.989-.414a1.35 1.35 0 0 0 .414-.989h1.909c0 .613-.15 1.17-.449 1.667a3.404 3.404 0 0 1-1.207 1.197 3.156 3.156 0 0 1-1.656.448ZM133.52 41V24.44h2.174l6.003 12.454 5.968-12.454h2.197v16.549h-2.277V29.66L142.237 41h-1.092l-5.359-11.339V41h-2.266Z"/>
  <path fill="#FCC01A" d="M161 12h3v38h-3V12Z"/>
</svg>
